#!OML:ASF F:\VICON\USERDATA\INSTALL\rory3\rory3.ASF
:FULLY-SPECIFIED
:DEGREES
362
root 0.786769 17.7473 6.14856 5.06193 -5.32623 0.224594
lowerback 9.02947 -0.284195 -2.38897
upperback -1.719 -0.540657 1.71451
thorax -6.846 -0.131697 3.23143
lowerneck -18.1709 -5.86594 -9.80077
upperneck 21.3082 -7.46464 8.35807
head 10.5365 -3.27474 3.51799
rclavicle -3.42904e-015 1.55052e-014
rhumerus -31.2168 0.166349 -79.2527
rradius 52.9282
rwrist 0.840397
rhand -15.6157 15.2437
rfingers 7.12502
rthumb 10.5709 -14.4705
lclavicle -3.42904e-015 1.55052e-014
lhumerus -39.9547 6.00629 75.7796
lradius 43.0166
lwrist -1.25979
lhand -19.7514 17.8267
lfingers 7.12502
lthumb 6.57982 47.7045
rfemur -13.7928 3.05849 20.7537
rtibia 25.0072
rfoot -8.47842 -5.58207
rtoes 15.0178
lfemur -13.263 -1.00463 -20.2903
ltibia 25.4003
lfoot -9.86032 8.4292
ltoes 0.374772
363
root 0.775411 17.7562 6.17089 5.23083 -5.48725 0.135466
lowerback 8.89477 -0.247051 -2.50642
upperback -1.7719 -0.499849 1.74745
thorax -6.82737 -0.105903 3.32537
lowerneck -18.2871 -6.01848 -9.97624
upperneck 21.3245 -7.63522 8.42297
head 10.5933 -3.35653 3.54183
rclavicle 2.6339e-015 -2.42517e-014
rhumerus -31.1339 0.0363188 -79.0767
rradius 52.8716
rwrist 0.936792
rhand -15.1653 15.0637
rfingers 7.12502
rthumb 11.0053 -14.6278
lclavicle 2.6339e-015 -2.42517e-014
lhumerus -39.7025 5.91708 75.3651
lradius 42.9036
lwrist -1.46007
lhand -19.7668 17.6223
lfingers 7.12502
lthumb 6.56495 47.5005
rfemur -13.7412 3.41267 20.866
rtibia 24.6746
rfoot -8.87495 -5.93696
rtoes 12.7276
lfemur -13.0632 -1.41413 -20.1693
ltibia 24.9377
lfoot -9.70824 8.98572
ltoes -0.0810092
364
root 0.770497 17.7638 6.19992 5.31085 -5.48841 0.116963
lowerback 8.76331 -0.243861 -2.54987
upperback -1.77454 -0.499304 1.72684
thorax -6.75481 -0.105733 3.32597
lowerneck -18.3937 -6.21467 -10.1174
upperneck 21.293 -7.86545 8.45245
head 10.6345 -3.46697 3.53648
rclavicle 1.45113e-014 -1.82882e-014
rhumerus -31.0415 -0.240848 -78.8807
rradius 52.7506
rwrist 1.11356
rhand -15.065 15.0317
rfingers 7.12502
rthumb 11.1021 -14.6546
lclavicle 1.45113e-014 -1.82882e-014
lhumerus -39.4215 5.77491 74.9691
lradius 42.8088
lwrist -1.65861
lhand -19.8735 17.9502
lfingers 7.12502
lthumb 6.46197 47.8316
rfemur -13.5142 3.28258 20.9141
rtibia 24.4057
rfoot -8.38232 -5.6324
rtoes 14.6638
lfemur -12.8149 -1.87536 -20.1441
ltibia 24.4991
lfoot -9.62435 9.42527
ltoes -0.0729432
365
root 0.768678 17.7635 6.22633 5.32922 -5.52425 0.0793929
lowerback 8.79238 -0.261027 -2.57659
upperback -1.8158 -0.526817 1.71275
thorax -6.81318 -0.11678 3.33125
lowerneck -18.3769 -6.34301 -10.075
upperneck 21.2417 -8.01133 8.27499
head 10.6181 -3.55116 3.4404
rclavicle 8.19987e-016 -1.27222e-014
rhumerus -31.0205 -0.437484 -78.7218
rradius 52.6596
rwrist 0.91536
rhand -14.7973 14.8439
rfingers 7.12502
rthumb 11.3603 -14.8284
lclavicle 8.19987e-016 -1.27222e-014
lhumerus -39.2713 5.86833 74.4992
lradius 42.8404
lwrist -1.81455
lhand -19.4943 20.408
lfingers 7.12502
lthumb 6.828 50.2779
rfemur -13.2687 3.0688 20.98
rtibia 24.1696
rfoot -8.63154 -5.56373
rtoes 12.5345
lfemur -12.5382 -2.10205 -20.1189
ltibia 24.1185
lfoot -9.48608 9.70492
ltoes -0.226806
366
root 0.767234 17.7632 6.25339 5.35289 -5.60195 0.0457322
lowerback 8.77159 -0.274407 -2.58275
upperback -1.79292 -0.548009 1.66604
thorax -6.77557 -0.129008 3.2877
lowerneck -18.5965 -6.41695 -9.97382
upperneck 21.2796 -8.10558 8.19226
head 10.6749 -3.58953 3.37459
rclavicle 3.03892e-014 -1.82882e-014
rhumerus -30.8328 -0.782057 -78.6155
rradius 52.629
rwrist 0.44284
rhand -14.1148 14.2644
rfingers 7.12502
rthumb 12.0184 -15.3706
lclavicle 3.03892e-014 -1.82882e-014
lhumerus -38.9009 6.21504 73.9473
lradius 42.6561
lwrist -1.99823
lhand -19.1728 22.944
lfingers 7.12502
lthumb 7.13831 52.8037
rfemur -13.1457 3.03081 20.998
rtibia 24.0274
rfoot -9.16132 -5.54707
rtoes 9.80707
lfemur -12.2756 -2.20296 -20.118
ltibia 23.8362
lfoot -9.44679 9.96243
ltoes -0.90779
367
root 0.767256 17.7574 6.28141 5.42077 -5.60964 0.110942
lowerback 8.63571 -0.288389 -2.62601
upperback -1.75372 -0.574762 1.57081
thorax -6.65448 -0.145385 3.21252
lowerneck -18.8205 -6.50741 -9.96343
upperneck 21.2545 -8.24024 8.29732
head 10.7269 -3.6319 3.38464
rclavicle -9.93923e-017 2.74323e-014
rhumerus -30.6088 -1.46786 -78.492
rradius 52.3901
rwrist 0.412059
rhand -13.7743 14.4938
rfingers 7.12502
rthumb 12.3468 -15.1217
lclavicle -9.93923e-017 2.74323e-014
lhumerus -38.5255 6.47573 73.4377
lradius 42.4972
lwrist -2.14294
lhand -19.2947 22.9378
lfingers 7.12502
lthumb 7.02071 52.8013
rfemur -13.0304 2.76192 20.9463
rtibia 23.9547
rfoot -9.81372 -5.39836
rtoes 6.14989
lfemur -12.0892 -2.19098 -20.225
ltibia 23.658
lfoot -9.56626 9.98738
ltoes -0.788488
